<svg width="380" height="240">
  <defs>
    <style type="text/css">
      path { stroke-width: 3; stroke-linecap: round }
      .bg1 { stroke: darkgreen }
      .bg2 { stroke: indigo }
      .fg { stroke: orange } 
    </style>
  </defs>
  <g transform="matrix(1, 0, 0, -1, 0, 240)">
    <rect width="100%" height="100%" style="fill: white"/>
    <!-- 1 -->
    <path d="M2 8 l6 -6" class="bg2"/>
    <path d="M12 8 l6 -6" class="fg"/>
    <path d="M22 8 l6 -6" class="bg2"/>
    <path d="M32 2 l6 6" class="bg2"/>
    <path d="M42 8 l6 -6" class="bg1"/>
    <path d="M52 2 l6 6" class="bg1"/>
    <path d="M62 8 l6 -6" class="bg1"/>
    <path d="M72 2 l6 6" class="bg1"/>
    <path d="M82 8 l6 -6" class="bg1"/>
    <path d="M92 2 l6 6" class="bg1"/>
    <path d="M102 8 l6 -6" class="bg1"/>
    <path d="M112 2 l6 6" class="bg1"/>
    <path d="M122 8 l6 -6" class="bg2"/>
    <path d="M132 2 l6 6" class="bg2"/>
    <path d="M142 8 l6 -6" class="bg2"/>
    <path d="M152 2 l6 6" class="bg2"/>
    <path d="M162 8 l6 -6" class="bg2"/>
    <path d="M172 2 l6 6" class="bg2"/>
    <path d="M182 8 l6 -6" class="bg2"/>
    <path d="M192 2 l6 6" class="bg2"/>
    <path d="M202 8 l6 -6" class="bg2"/>
    <path d="M212 2 l6 6" class="bg2"/>
    <path d="M222 8 l6 -6" class="bg2"/>
    <path d="M232 2 l6 6" class="bg2"/>
    <path d="M242 8 l6 -6" class="bg2"/>
    <path d="M252 2 l6 6" class="bg2"/>
    <path d="M262 8 l6 -6" class="bg1"/>
    <path d="M272 2 l6 6" class="bg1"/>
    <path d="M282 8 l6 -6" class="bg1"/>
    <path d="M292 2 l6 6" class="bg1"/>
    <path d="M302 8 l6 -6" class="bg1"/>
    <path d="M312 2 l6 6" class="bg1"/>
    <path d="M322 8 l6 -6" class="bg1"/>
    <path d="M332 2 l6 6" class="bg1"/>
    <path d="M342 8 l6 -6" class="bg2"/>
    <path d="M352 2 l6 6" class="bg2"/>
    <path d="M362 2 l6 6" class="fg"/>
    <path d="M372 2 l6 6" class="bg2"/>
    <!-- 2 -->
    <path d="M2 18 l6 -6" class="fg"/>
    <path d="M12 18 l6 -6" class="bg2"/>
    <path d="M22 18 l6 -6" class="fg"/>
    <path d="M32 12 l6 6" class="fg"/>
    <path d="M42 12 l6 6" class="bg1"/>
    <path d="M52 18 l6 -6" class="bg1"/>
    <path d="M62 12 l6 6" class="bg1"/>
    <path d="M72 18 l6 -6" class="bg1"/>
    <path d="M82 12 l6 6" class="bg1"/>
    <path d="M92 18 l6 -6" class="bg1"/>
    <path d="M102 12 l6 6" class="bg1"/>
    <path d="M112 18 l6 -6" class="bg1"/>
    <path d="M122 12 l6 6" class="bg2"/>
    <path d="M132 18 l6 -6" class="bg2"/>
    <path d="M142 12 l6 6" class="bg2"/>
    <path d="M152 12 l6 6" class="fg"/>
    <path d="M162 18 l6 -6" class="fg"/>
    <path d="M172 12 l6 6" class="fg"/>
    <path d="M182 18 l6 -6" class="fg"/>
    <path d="M192 12 l6 6" class="fg"/>
    <path d="M202 18 l6 -6" class="fg"/>
    <path d="M212 12 l6 6" class="fg"/>
    <path d="M222 18 l6 -6" class="fg"/>
    <path d="M232 18 l6 -6" class="bg2"/>
    <path d="M242 12 l6 6" class="bg2"/>
    <path d="M252 18 l6 -6" class="bg2"/>
    <path d="M262 12 l6 6" class="bg1"/>
    <path d="M272 18 l6 -6" class="bg1"/>
    <path d="M282 12 l6 6" class="bg1"/>
    <path d="M292 18 l6 -6" class="bg1"/>
    <path d="M302 12 l6 6" class="bg1"/>
    <path d="M312 18 l6 -6" class="bg1"/>
    <path d="M322 12 l6 6" class="bg1"/>
    <path d="M332 18 l6 -6" class="bg1"/>
    <path d="M342 18 l6 -6" class="fg"/>
    <path d="M352 12 l6 6" class="fg"/>
    <path d="M362 12 l6 6" class="bg2"/>
    <path d="M372 12 l6 6" class="fg"/>
    <!-- 3 -->
    <path d="M2 22 l6 6" class="fg"/>
    <path d="M12 22 l6 6" class="bg2"/>
    <path d="M22 22 l6 6" class="fg"/>
    <path d="M32 28 l6 -6" class="fg"/>
    <path d="M42 28 l6 -6" class="bg1"/>
    <path d="M52 22 l6 6" class="bg1"/>
    <path d="M62 28 l6 -6" class="bg1"/>
    <path d="M72 22 l6 6" class="bg1"/>
    <path d="M82 28 l6 -6" class="bg1"/>
    <path d="M92 22 l6 6" class="bg1"/>
    <path d="M102 28 l6 -6" class="bg1"/>
    <path d="M112 22 l6 6" class="bg1"/>
    <path d="M122 28 l6 -6" class="bg2"/>
    <path d="M132 22 l6 6" class="bg2"/>
    <path d="M142 28 l6 -6" class="bg2"/>
    <path d="M152 22 l6 6" class="bg2"/>
    <path d="M162 22 l6 6" class="fg"/>
    <path d="M172 28 l6 -6" class="fg"/>
    <path d="M182 22 l6 6" class="fg"/>
    <path d="M192 28 l6 -6" class="fg"/>
    <path d="M202 22 l6 6" class="fg"/>
    <path d="M212 28 l6 -6" class="fg"/>
    <path d="M222 28 l6 -6" class="bg2"/>
    <path d="M232 22 l6 6" class="bg2"/>
    <path d="M242 28 l6 -6" class="bg2"/>
    <path d="M252 22 l6 6" class="bg2"/>
    <path d="M262 28 l6 -6" class="bg1"/>
    <path d="M272 22 l6 6" class="bg1"/>
    <path d="M282 28 l6 -6" class="bg1"/>
    <path d="M292 22 l6 6" class="bg1"/>
    <path d="M302 28 l6 -6" class="bg1"/>
    <path d="M312 22 l6 6" class="bg1"/>
    <path d="M322 28 l6 -6" class="bg1"/>
    <path d="M332 22 l6 6" class="bg1"/>
    <path d="M342 22 l6 6" class="fg"/>
    <path d="M352 28 l6 -6" class="fg"/>
    <path d="M362 28 l6 -6" class="bg2"/>
    <path d="M372 28 l6 -6" class="fg"/>
    <!-- 4 -->
    <path d="M2 32 l6 6" class="bg2"/>
    <path d="M12 32 l6 6" class="fg"/>
    <path d="M22 32 l6 6" class="bg2"/>
    <path d="M32 38 l6 -6" class="bg2"/>
    <path d="M42 32 l6 6" class="bg1"/>
    <path d="M52 38 l6 -6" class="bg1"/>
    <path d="M62 32 l6 6" class="bg1"/>
    <path d="M72 38 l6 -6" class="bg1"/>
    <path d="M82 32 l6 6" class="bg1"/>
    <path d="M92 38 l6 -6" class="bg1"/>
    <path d="M102 32 l6 6" class="bg1"/>
    <path d="M112 38 l6 -6" class="bg1"/>
    <path d="M122 32 l6 6" class="bg2"/>
    <path d="M132 38 l6 -6" class="bg2"/>
    <path d="M142 32 l6 6" class="bg2"/>
    <path d="M152 38 l6 -6" class="bg2"/>
    <path d="M162 32 l6 6" class="bg2"/>
    <path d="M172 32 l6 6" class="fg"/>
    <path d="M182 38 l6 -6" class="fg"/>
    <path d="M192 32 l6 6" class="fg"/>
    <path d="M202 38 l6 -6" class="fg"/>
    <path d="M212 38 l6 -6" class="bg2"/>
    <path d="M222 32 l6 6" class="bg2"/>
    <path d="M232 38 l6 -6" class="bg2"/>
    <path d="M242 32 l6 6" class="bg2"/>
    <path d="M252 38 l6 -6" class="bg2"/>
    <path d="M262 32 l6 6" class="bg1"/>
    <path d="M272 38 l6 -6" class="bg1"/>
    <path d="M282 32 l6 6" class="bg1"/>
    <path d="M292 38 l6 -6" class="bg1"/>
    <path d="M302 32 l6 6" class="bg1"/>
    <path d="M312 38 l6 -6" class="bg1"/>
    <path d="M322 32 l6 6" class="bg1"/>
    <path d="M332 38 l6 -6" class="bg1"/>
    <path d="M342 32 l6 6" class="bg2"/>
    <path d="M352 38 l6 -6" class="bg2"/>
    <path d="M362 38 l6 -6" class="fg"/>
    <path d="M372 38 l6 -6" class="bg2"/>
    <!-- 5 -->
    <path d="M2 48 l6 -6" class="bg2"/>
    <path d="M12 42 l6 6" class="bg2"/>
    <path d="M22 42 l6 6" class="fg"/>
    <path d="M32 42 l6 6" class="bg2"/>
    <path d="M42 48 l6 -6" class="bg1"/>
    <path d="M52 42 l6 6" class="bg1"/>
    <path d="M62 48 l6 -6" class="bg1"/>
    <path d="M72 42 l6 6" class="bg1"/>
    <path d="M82 48 l6 -6" class="bg1"/>
    <path d="M92 42 l6 6" class="bg1"/>
    <path d="M102 42 l6 6" class="fg"/>
    <path d="M112 48 l6 -6" class="fg"/>
    <path d="M122 42 l6 6" class="fg"/>
    <path d="M132 48 l6 -6" class="fg"/>
    <path d="M142 42 l6 6" class="fg"/>
    <path d="M152 48 l6 -6" class="fg"/>
    <path d="M162 42 l6 6" class="fg"/>
    <path d="M172 48 l6 -6" class="fg"/>
    <path d="M182 48 l6 -6" class="bg2"/>
    <path d="M192 42 l6 6" class="bg2"/>
    <path d="M202 42 l6 6" class="fg"/>
    <path d="M212 48 l6 -6" class="fg"/>
    <path d="M222 42 l6 6" class="fg"/>
    <path d="M232 48 l6 -6" class="fg"/>
    <path d="M242 42 l6 6" class="fg"/>
    <path d="M252 48 l6 -6" class="fg"/>
    <path d="M262 42 l6 6" class="fg"/>
    <path d="M272 48 l6 -6" class="fg"/>
    <path d="M282 48 l6 -6" class="bg1"/>
    <path d="M292 42 l6 6" class="bg1"/>
    <path d="M302 48 l6 -6" class="bg1"/>
    <path d="M312 42 l6 6" class="bg1"/>
    <path d="M322 48 l6 -6" class="bg1"/>
    <path d="M332 42 l6 6" class="bg1"/>
    <path d="M342 48 l6 -6" class="bg2"/>
    <path d="M352 48 l6 -6" class="fg"/>
    <path d="M362 48 l6 -6" class="bg2"/>
    <path d="M372 42 l6 6" class="bg2"/>
    <!-- 6 -->
    <path d="M2 58 l6 -6" class="fg"/>
    <path d="M12 52 l6 6" class="fg"/>
    <path d="M22 52 l6 6" class="bg2"/>
    <path d="M32 52 l6 6" class="fg"/>
    <path d="M42 52 l6 6" class="bg1"/>
    <path d="M52 58 l6 -6" class="bg1"/>
    <path d="M62 52 l6 6" class="bg1"/>
    <path d="M72 58 l6 -6" class="bg1"/>
    <path d="M82 52 l6 6" class="bg1"/>
    <path d="M92 58 l6 -6" class="bg1"/>
    <path d="M102 52 l6 6" class="bg1"/>
    <path d="M112 52 l6 6" class="fg"/>
    <path d="M122 58 l6 -6" class="fg"/>
    <path d="M132 52 l6 6" class="fg"/>
    <path d="M142 58 l6 -6" class="fg"/>
    <path d="M152 52 l6 6" class="fg"/>
    <path d="M162 58 l6 -6" class="fg"/>
    <path d="M172 58 l6 -6" class="bg2"/>
    <path d="M182 52 l6 6" class="bg2"/>
    <path d="M192 58 l6 -6" class="bg2"/>
    <path d="M202 52 l6 6" class="bg2"/>
    <path d="M212 52 l6 6" class="fg"/>
    <path d="M222 58 l6 -6" class="fg"/>
    <path d="M232 52 l6 6" class="fg"/>
    <path d="M242 58 l6 -6" class="fg"/>
    <path d="M252 52 l6 6" class="fg"/>
    <path d="M262 58 l6 -6" class="fg"/>
    <path d="M272 58 l6 -6" class="bg1"/>
    <path d="M282 52 l6 6" class="bg1"/>
    <path d="M292 58 l6 -6" class="bg1"/>
    <path d="M302 52 l6 6" class="bg1"/>
    <path d="M312 58 l6 -6" class="bg1"/>
    <path d="M322 52 l6 6" class="bg1"/>
    <path d="M332 58 l6 -6" class="bg1"/>
    <path d="M342 58 l6 -6" class="fg"/>
    <path d="M352 58 l6 -6" class="bg2"/>
    <path d="M362 58 l6 -6" class="fg"/>
    <path d="M372 52 l6 6" class="fg"/>
    <!-- 7 -->
    <path d="M2 62 l6 6" class="fg"/>
    <path d="M12 68 l6 -6" class="fg"/>
    <path d="M22 68 l6 -6" class="bg2"/>
    <path d="M32 68 l6 -6" class="fg"/>
    <path d="M42 68 l6 -6" class="bg1"/>
    <path d="M52 62 l6 6" class="bg1"/>
    <path d="M62 68 l6 -6" class="bg1"/>
    <path d="M72 62 l6 6" class="bg1"/>
    <path d="M82 68 l6 -6" class="bg1"/>
    <path d="M92 62 l6 6" class="bg1"/>
    <path d="M102 68 l6 -6" class="bg1"/>
    <path d="M112 62 l6 6" class="bg1"/>
    <path d="M122 62 l6 6" class="fg"/>
    <path d="M132 68 l6 -6" class="fg"/>
    <path d="M142 62 l6 6" class="fg"/>
    <path d="M152 68 l6 -6" class="fg"/>
    <path d="M162 68 l6 -6" class="bg2"/>
    <path d="M172 62 l6 6" class="bg2"/>
    <path d="M182 68 l6 -6" class="bg2"/>
    <path d="M192 62 l6 6" class="bg2"/>
    <path d="M202 68 l6 -6" class="bg2"/>
    <path d="M212 62 l6 6" class="bg2"/>
    <path d="M222 62 l6 6" class="fg"/>
    <path d="M232 68 l6 -6" class="fg"/>
    <path d="M242 62 l6 6" class="fg"/>
    <path d="M252 68 l6 -6" class="fg"/>
    <path d="M262 68 l6 -6" class="bg1"/>
    <path d="M272 62 l6 6" class="bg1"/>
    <path d="M282 68 l6 -6" class="bg1"/>
    <path d="M292 62 l6 6" class="bg1"/>
    <path d="M302 68 l6 -6" class="bg1"/>
    <path d="M312 62 l6 6" class="bg1"/>
    <path d="M322 68 l6 -6" class="bg1"/>
    <path d="M332 62 l6 6" class="bg1"/>
    <path d="M342 62 l6 6" class="fg"/>
    <path d="M352 62 l6 6" class="bg2"/>
    <path d="M362 62 l6 6" class="fg"/>
    <path d="M372 68 l6 -6" class="fg"/>
    <!-- 8 -->
    <path d="M2 72 l6 6" class="bg2"/>
    <path d="M12 78 l6 -6" class="bg2"/>
    <path d="M22 78 l6 -6" class="fg"/>
    <path d="M32 78 l6 -6" class="bg2"/>
    <path d="M42 72 l6 6" class="bg1"/>
    <path d="M52 78 l6 -6" class="bg1"/>
    <path d="M62 72 l6 6" class="bg1"/>
    <path d="M72 78 l6 -6" class="bg1"/>
    <path d="M82 72 l6 6" class="bg1"/>
    <path d="M92 78 l6 -6" class="bg1"/>
    <path d="M102 72 l6 6" class="bg1"/>
    <path d="M112 78 l6 -6" class="bg1"/>
    <path d="M122 72 l6 6" class="bg2"/>
    <path d="M132 72 l6 6" class="fg"/>
    <path d="M142 78 l6 -6" class="fg"/>
    <path d="M152 78 l6 -6" class="bg2"/>
    <path d="M162 72 l6 6" class="bg2"/>
    <path d="M172 72 l6 6" class="fg"/>
    <path d="M182 78 l6 -6" class="fg"/>
    <path d="M192 72 l6 6" class="fg"/>
    <path d="M202 78 l6 -6" class="fg"/>
    <path d="M212 78 l6 -6" class="bg2"/>
    <path d="M222 72 l6 6" class="bg2"/>
    <path d="M232 72 l6 6" class="fg"/>
    <path d="M242 78 l6 -6" class="fg"/>
    <path d="M252 78 l6 -6" class="bg2"/>
    <path d="M262 72 l6 6" class="bg1"/>
    <path d="M272 78 l6 -6" class="bg1"/>
    <path d="M282 72 l6 6" class="bg1"/>
    <path d="M292 78 l6 -6" class="bg1"/>
    <path d="M302 72 l6 6" class="bg1"/>
    <path d="M312 78 l6 -6" class="bg1"/>
    <path d="M322 72 l6 6" class="bg1"/>
    <path d="M332 78 l6 -6" class="bg1"/>
    <path d="M342 72 l6 6" class="bg2"/>
    <path d="M352 72 l6 6" class="fg"/>
    <path d="M362 72 l6 6" class="bg2"/>
    <path d="M372 78 l6 -6" class="bg2"/>
    <!-- 9 -->
    <path d="M2 88 l6 -6" class="bg2"/>
    <path d="M12 88 l6 -6" class="fg"/>
    <path d="M22 88 l6 -6" class="bg2"/>
    <path d="M32 82 l6 6" class="bg2"/>
    <path d="M42 88 l6 -6" class="bg1"/>
    <path d="M52 82 l6 6" class="bg1"/>
    <path d="M62 82 l6 6" class="fg"/>
    <path d="M72 88 l6 -6" class="fg"/>
    <path d="M82 82 l6 6" class="fg"/>
    <path d="M92 88 l6 -6" class="fg"/>
    <path d="M102 82 l6 6" class="fg"/>
    <path d="M112 88 l6 -6" class="fg"/>
    <path d="M122 82 l6 6" class="fg"/>
    <path d="M132 88 l6 -6" class="fg"/>
    <path d="M142 88 l6 -6" class="bg2"/>
    <path d="M152 82 l6 6" class="bg2"/>
    <path d="M162 88 l6 -6" class="bg2"/>
    <path d="M172 82 l6 6" class="bg2"/>
    <path d="M182 82 l6 6" class="fg"/>
    <path d="M192 88 l6 -6" class="fg"/>
    <path d="M202 88 l6 -6" class="bg2"/>
    <path d="M212 82 l6 6" class="bg2"/>
    <path d="M222 88 l6 -6" class="bg2"/>
    <path d="M232 82 l6 6" class="bg2"/>
    <path d="M242 82 l6 6" class="fg"/>
    <path d="M252 88 l6 -6" class="fg"/>
    <path d="M262 82 l6 6" class="fg"/>
    <path d="M272 88 l6 -6" class="fg"/>
    <path d="M282 82 l6 6" class="fg"/>
    <path d="M292 88 l6 -6" class="fg"/>
    <path d="M302 82 l6 6" class="fg"/>
    <path d="M312 88 l6 -6" class="fg"/>
    <path d="M322 88 l6 -6" class="bg1"/>
    <path d="M332 82 l6 6" class="bg1"/>
    <path d="M342 88 l6 -6" class="bg2"/>
    <path d="M352 82 l6 6" class="bg2"/>
    <path d="M362 82 l6 6" class="fg"/>
    <path d="M372 82 l6 6" class="bg2"/>
    <!-- 10 -->
    <path d="M2 98 l6 -6" class="fg"/>
    <path d="M12 98 l6 -6" class="bg2"/>
    <path d="M22 98 l6 -6" class="fg"/>
    <path d="M32 92 l6 6" class="fg"/>
    <path d="M42 92 l6 6" class="bg1"/>
    <path d="M52 98 l6 -6" class="bg1"/>
    <path d="M62 92 l6 6" class="bg1"/>
    <path d="M72 92 l6 6" class="fg"/>
    <path d="M82 98 l6 -6" class="fg"/>
    <path d="M92 92 l6 6" class="fg"/>
    <path d="M102 98 l6 -6" class="fg"/>
    <path d="M112 92 l6 6" class="fg"/>
    <path d="M122 98 l6 -6" class="fg"/>
    <path d="M132 98 l6 -6" class="bg2"/>
    <path d="M142 92 l6 6" class="bg2"/>
    <path d="M152 92 l6 6" class="fg"/>
    <path d="M162 98 l6 -6" class="fg"/>
    <path d="M172 92 l6 6" class="fg"/>
    <path d="M182 98 l6 -6" class="fg"/>
    <path d="M192 92 l6 6" class="fg"/>
    <path d="M202 98 l6 -6" class="fg"/>
    <path d="M212 92 l6 6" class="fg"/>
    <path d="M222 98 l6 -6" class="fg"/>
    <path d="M232 98 l6 -6" class="bg2"/>
    <path d="M242 92 l6 6" class="bg2"/>
    <path d="M252 92 l6 6" class="fg"/>
    <path d="M262 98 l6 -6" class="fg"/>
    <path d="M272 92 l6 6" class="fg"/>
    <path d="M282 98 l6 -6" class="fg"/>
    <path d="M292 92 l6 6" class="fg"/>
    <path d="M302 98 l6 -6" class="fg"/>
    <path d="M312 98 l6 -6" class="bg1"/>
    <path d="M322 92 l6 6" class="bg1"/>
    <path d="M332 98 l6 -6" class="bg1"/>
    <path d="M342 98 l6 -6" class="fg"/>
    <path d="M352 92 l6 6" class="fg"/>
    <path d="M362 92 l6 6" class="bg2"/>
    <path d="M372 92 l6 6" class="fg"/>
    <!-- 11 -->
    <path d="M2 102 l6 6" class="fg"/>
    <path d="M12 102 l6 6" class="bg2"/>
    <path d="M22 102 l6 6" class="fg"/>
    <path d="M32 108 l6 -6" class="fg"/>
    <path d="M42 108 l6 -6" class="bg1"/>
    <path d="M52 102 l6 6" class="bg1"/>
    <path d="M62 108 l6 -6" class="bg1"/>
    <path d="M72 102 l6 6" class="bg1"/>
    <path d="M82 102 l6 6" class="fg"/>
    <path d="M92 108 l6 -6" class="fg"/>
    <path d="M102 102 l6 6" class="fg"/>
    <path d="M112 108 l6 -6" class="fg"/>
    <path d="M122 108 l6 -6" class="bg2"/>
    <path d="M132 102 l6 6" class="bg2"/>
    <path d="M142 108 l6 -6" class="bg2"/>
    <path d="M152 102 l6 6" class="bg2"/>
    <path d="M162 102 l6 6" class="fg"/>
    <path d="M172 108 l6 -6" class="fg"/>
    <path d="M182 108 l6 -6" class="bg2"/>
    <path d="M192 102 l6 6" class="bg2"/>
    <path d="M202 102 l6 6" class="fg"/>
    <path d="M212 108 l6 -6" class="fg"/>
    <path d="M222 108 l6 -6" class="bg2"/>
    <path d="M232 102 l6 6" class="bg2"/>
    <path d="M242 108 l6 -6" class="bg2"/>
    <path d="M252 102 l6 6" class="bg2"/>
    <path d="M262 102 l6 6" class="fg"/>
    <path d="M272 108 l6 -6" class="fg"/>
    <path d="M282 102 l6 6" class="fg"/>
    <path d="M292 108 l6 -6" class="fg"/>
    <path d="M302 108 l6 -6" class="bg1"/>
    <path d="M312 102 l6 6" class="bg1"/>
    <path d="M322 108 l6 -6" class="bg1"/>
    <path d="M332 102 l6 6" class="bg1"/>
    <path d="M342 102 l6 6" class="fg"/>
    <path d="M352 108 l6 -6" class="fg"/>
    <path d="M362 108 l6 -6" class="bg2"/>
    <path d="M372 108 l6 -6" class="fg"/>
    <!-- 12 -->
    <path d="M2 112 l6 6" class="bg2"/>
    <path d="M12 112 l6 6" class="fg"/>
    <path d="M22 112 l6 6" class="bg2"/>
    <path d="M32 118 l6 -6" class="bg2"/>
    <path d="M42 112 l6 6" class="bg1"/>
    <path d="M52 118 l6 -6" class="bg1"/>
    <path d="M62 112 l6 6" class="bg1"/>
    <path d="M72 118 l6 -6" class="bg1"/>
    <path d="M82 112 l6 6" class="bg1"/>
    <path d="M92 112 l6 6" class="fg"/>
    <path d="M102 118 l6 -6" class="fg"/>
    <path d="M112 118 l6 -6" class="bg1"/>
    <path d="M122 112 l6 6" class="bg2"/>
    <path d="M132 112 l6 6" class="fg"/>
    <path d="M142 118 l6 -6" class="fg"/>
    <path d="M152 112 l6 6" class="fg"/>
    <path d="M162 118 l6 -6" class="fg"/>
    <path d="M172 118 l6 -6" class="bg2"/>
    <path d="M182 118 l6 -6" class="fg"/>
    <path d="M192 112 l6 6" class="fg"/>
    <path d="M202 112 l6 6" class="bg2"/>
    <path d="M212 112 l6 6" class="fg"/>
    <path d="M222 118 l6 -6" class="fg"/>
    <path d="M232 112 l6 6" class="fg"/>
    <path d="M242 118 l6 -6" class="fg"/>
    <path d="M252 118 l6 -6" class="bg2"/>
    <path d="M262 112 l6 6" class="bg1"/>
    <path d="M272 112 l6 6" class="fg"/>
    <path d="M282 118 l6 -6" class="fg"/>
    <path d="M292 118 l6 -6" class="bg1"/>
    <path d="M302 112 l6 6" class="bg1"/>
    <path d="M312 118 l6 -6" class="bg1"/>
    <path d="M322 112 l6 6" class="bg1"/>
    <path d="M332 118 l6 -6" class="bg1"/>
    <path d="M342 112 l6 6" class="bg2"/>
    <path d="M352 118 l6 -6" class="bg2"/>
    <path d="M362 118 l6 -6" class="fg"/>
    <path d="M372 118 l6 -6" class="bg2"/>
    <!-- 13 -->
    <path d="M2 128 l6 -6" class="bg2"/>
    <path d="M12 122 l6 6" class="bg2"/>
    <path d="M22 122 l6 6" class="fg"/>
    <path d="M32 122 l6 6" class="bg2"/>
    <path d="M42 128 l6 -6" class="bg1"/>
    <path d="M52 122 l6 6" class="bg1"/>
    <path d="M62 128 l6 -6" class="bg1"/>
    <path d="M72 122 l6 6" class="bg1"/>
    <path d="M82 128 l6 -6" class="bg1"/>
    <path d="M92 128 l6 -6" class="fg"/>
    <path d="M102 122 l6 6" class="fg"/>
    <path d="M112 122 l6 6" class="bg1"/>
    <path d="M122 128 l6 -6" class="bg2"/>
    <path d="M132 128 l6 -6" class="fg"/>
    <path d="M142 122 l6 6" class="fg"/>
    <path d="M152 128 l6 -6" class="fg"/>
    <path d="M162 122 l6 6" class="fg"/>
    <path d="M172 122 l6 6" class="bg2"/>
    <path d="M182 122 l6 6" class="fg"/>
    <path d="M192 128 l6 -6" class="fg"/>
    <path d="M202 128 l6 -6" class="bg2"/>
    <path d="M212 128 l6 -6" class="fg"/>
    <path d="M222 122 l6 6" class="fg"/>
    <path d="M232 128 l6 -6" class="fg"/>
    <path d="M242 122 l6 6" class="fg"/>
    <path d="M252 122 l6 6" class="bg2"/>
    <path d="M262 128 l6 -6" class="bg1"/>
    <path d="M272 128 l6 -6" class="fg"/>
    <path d="M282 122 l6 6" class="fg"/>
    <path d="M292 122 l6 6" class="bg1"/>
    <path d="M302 128 l6 -6" class="bg1"/>
    <path d="M312 122 l6 6" class="bg1"/>
    <path d="M322 128 l6 -6" class="bg1"/>
    <path d="M332 122 l6 6" class="bg1"/>
    <path d="M342 128 l6 -6" class="bg2"/>
    <path d="M352 128 l6 -6" class="fg"/>
    <path d="M362 128 l6 -6" class="bg2"/>
    <path d="M372 122 l6 6" class="bg2"/>
    <!-- 14 -->
    <path d="M2 138 l6 -6" class="fg"/>
    <path d="M12 132 l6 6" class="fg"/>
    <path d="M22 132 l6 6" class="bg2"/>
    <path d="M32 132 l6 6" class="fg"/>
    <path d="M42 132 l6 6" class="bg1"/>
    <path d="M52 138 l6 -6" class="bg1"/>
    <path d="M62 132 l6 6" class="bg1"/>
    <path d="M72 138 l6 -6" class="bg1"/>
    <path d="M82 138 l6 -6" class="fg"/>
    <path d="M92 132 l6 6" class="fg"/>
    <path d="M102 138 l6 -6" class="fg"/>
    <path d="M112 132 l6 6" class="fg"/>
    <path d="M122 132 l6 6" class="bg2"/>
    <path d="M132 138 l6 -6" class="bg2"/>
    <path d="M142 132 l6 6" class="bg2"/>
    <path d="M152 138 l6 -6" class="bg2"/>
    <path d="M162 138 l6 -6" class="fg"/>
    <path d="M172 132 l6 6" class="fg"/>
    <path d="M182 132 l6 6" class="bg2"/>
    <path d="M192 138 l6 -6" class="bg2"/>
    <path d="M202 138 l6 -6" class="fg"/>
    <path d="M212 132 l6 6" class="fg"/>
    <path d="M222 132 l6 6" class="bg2"/>
    <path d="M232 138 l6 -6" class="bg2"/>
    <path d="M242 132 l6 6" class="bg2"/>
    <path d="M252 138 l6 -6" class="bg2"/>
    <path d="M262 138 l6 -6" class="fg"/>
    <path d="M272 132 l6 6" class="fg"/>
    <path d="M282 138 l6 -6" class="fg"/>
    <path d="M292 132 l6 6" class="fg"/>
    <path d="M302 132 l6 6" class="bg1"/>
    <path d="M312 138 l6 -6" class="bg1"/>
    <path d="M322 132 l6 6" class="bg1"/>
    <path d="M332 138 l6 -6" class="bg1"/>
    <path d="M342 138 l6 -6" class="fg"/>
    <path d="M352 138 l6 -6" class="bg2"/>
    <path d="M362 138 l6 -6" class="fg"/>
    <path d="M372 132 l6 6" class="fg"/>
    <!-- 15 -->
    <path d="M2 142 l6 6" class="fg"/>
    <path d="M12 148 l6 -6" class="fg"/>
    <path d="M22 148 l6 -6" class="bg2"/>
    <path d="M32 148 l6 -6" class="fg"/>
    <path d="M42 148 l6 -6" class="bg1"/>
    <path d="M52 142 l6 6" class="bg1"/>
    <path d="M62 148 l6 -6" class="bg1"/>
    <path d="M72 148 l6 -6" class="fg"/>
    <path d="M82 142 l6 6" class="fg"/>
    <path d="M92 148 l6 -6" class="fg"/>
    <path d="M102 142 l6 6" class="fg"/>
    <path d="M112 148 l6 -6" class="fg"/>
    <path d="M122 142 l6 6" class="fg"/>
    <path d="M132 142 l6 6" class="bg2"/>
    <path d="M142 148 l6 -6" class="bg2"/>
    <path d="M152 148 l6 -6" class="fg"/>
    <path d="M162 142 l6 6" class="fg"/>
    <path d="M172 148 l6 -6" class="fg"/>
    <path d="M182 142 l6 6" class="fg"/>
    <path d="M192 148 l6 -6" class="fg"/>
    <path d="M202 142 l6 6" class="fg"/>
    <path d="M212 148 l6 -6" class="fg"/>
    <path d="M222 142 l6 6" class="fg"/>
    <path d="M232 142 l6 6" class="bg2"/>
    <path d="M242 148 l6 -6" class="bg2"/>
    <path d="M252 148 l6 -6" class="fg"/>
    <path d="M262 142 l6 6" class="fg"/>
    <path d="M272 148 l6 -6" class="fg"/>
    <path d="M282 142 l6 6" class="fg"/>
    <path d="M292 148 l6 -6" class="fg"/>
    <path d="M302 142 l6 6" class="fg"/>
    <path d="M312 142 l6 6" class="bg1"/>
    <path d="M322 148 l6 -6" class="bg1"/>
    <path d="M332 142 l6 6" class="bg1"/>
    <path d="M342 142 l6 6" class="fg"/>
    <path d="M352 142 l6 6" class="bg2"/>
    <path d="M362 142 l6 6" class="fg"/>
    <path d="M372 148 l6 -6" class="fg"/>
    <!-- 16 -->
    <path d="M2 152 l6 6" class="bg2"/>
    <path d="M12 158 l6 -6" class="bg2"/>
    <path d="M22 158 l6 -6" class="fg"/>
    <path d="M32 158 l6 -6" class="bg2"/>
    <path d="M42 152 l6 6" class="bg1"/>
    <path d="M52 158 l6 -6" class="bg1"/>
    <path d="M62 158 l6 -6" class="fg"/>
    <path d="M72 152 l6 6" class="fg"/>
    <path d="M82 158 l6 -6" class="fg"/>
    <path d="M92 152 l6 6" class="fg"/>
    <path d="M102 158 l6 -6" class="fg"/>
    <path d="M112 152 l6 6" class="fg"/>
    <path d="M122 158 l6 -6" class="fg"/>
    <path d="M132 152 l6 6" class="fg"/>
    <path d="M142 152 l6 6" class="bg2"/>
    <path d="M152 158 l6 -6" class="bg2"/>
    <path d="M162 152 l6 6" class="bg2"/>
    <path d="M172 158 l6 -6" class="bg2"/>
    <path d="M182 158 l6 -6" class="fg"/>
    <path d="M192 152 l6 6" class="fg"/>
    <path d="M202 152 l6 6" class="bg2"/>
    <path d="M212 158 l6 -6" class="bg2"/>
    <path d="M222 152 l6 6" class="bg2"/>
    <path d="M232 158 l6 -6" class="bg2"/>
    <path d="M242 158 l6 -6" class="fg"/>
    <path d="M252 152 l6 6" class="fg"/>
    <path d="M262 158 l6 -6" class="fg"/>
    <path d="M272 152 l6 6" class="fg"/>
    <path d="M282 158 l6 -6" class="fg"/>
    <path d="M292 152 l6 6" class="fg"/>
    <path d="M302 158 l6 -6" class="fg"/>
    <path d="M312 152 l6 6" class="fg"/>
    <path d="M322 152 l6 6" class="bg1"/>
    <path d="M332 158 l6 -6" class="bg1"/>
    <path d="M342 152 l6 6" class="bg2"/>
    <path d="M352 152 l6 6" class="fg"/>
    <path d="M362 152 l6 6" class="bg2"/>
    <path d="M372 158 l6 -6" class="bg2"/>
    <!-- 17 -->
    <path d="M2 168 l6 -6" class="bg2"/>
    <path d="M12 168 l6 -6" class="fg"/>
    <path d="M22 168 l6 -6" class="bg2"/>
    <path d="M32 162 l6 6" class="bg2"/>
    <path d="M42 168 l6 -6" class="bg1"/>
    <path d="M52 162 l6 6" class="bg1"/>
    <path d="M62 168 l6 -6" class="bg1"/>
    <path d="M72 162 l6 6" class="bg1"/>
    <path d="M82 168 l6 -6" class="bg1"/>
    <path d="M92 162 l6 6" class="bg1"/>
    <path d="M102 168 l6 -6" class="bg1"/>
    <path d="M112 162 l6 6" class="bg1"/>
    <path d="M122 168 l6 -6" class="bg2"/>
    <path d="M132 168 l6 -6" class="fg"/>
    <path d="M142 162 l6 6" class="fg"/>
    <path d="M152 162 l6 6" class="bg2"/>
    <path d="M162 168 l6 -6" class="bg2"/>
    <path d="M172 168 l6 -6" class="fg"/>
    <path d="M182 162 l6 6" class="fg"/>
    <path d="M192 168 l6 -6" class="fg"/>
    <path d="M202 162 l6 6" class="fg"/>
    <path d="M212 162 l6 6" class="bg2"/>
    <path d="M222 168 l6 -6" class="bg2"/>
    <path d="M232 168 l6 -6" class="fg"/>
    <path d="M242 162 l6 6" class="fg"/>
    <path d="M252 162 l6 6" class="bg2"/>
    <path d="M262 168 l6 -6" class="bg1"/>
    <path d="M272 162 l6 6" class="bg1"/>
    <path d="M282 168 l6 -6" class="bg1"/>
    <path d="M292 162 l6 6" class="bg1"/>
    <path d="M302 168 l6 -6" class="bg1"/>
    <path d="M312 162 l6 6" class="bg1"/>
    <path d="M322 168 l6 -6" class="bg1"/>
    <path d="M332 162 l6 6" class="bg1"/>
    <path d="M342 168 l6 -6" class="bg2"/>
    <path d="M352 162 l6 6" class="bg2"/>
    <path d="M362 162 l6 6" class="fg"/>
    <path d="M372 162 l6 6" class="bg2"/>
    <!-- 18 -->
    <path d="M2 178 l6 -6" class="fg"/>
    <path d="M12 178 l6 -6" class="bg2"/>
    <path d="M22 178 l6 -6" class="fg"/>
    <path d="M32 172 l6 6" class="fg"/>
    <path d="M42 172 l6 6" class="bg1"/>
    <path d="M52 178 l6 -6" class="bg1"/>
    <path d="M62 172 l6 6" class="bg1"/>
    <path d="M72 178 l6 -6" class="bg1"/>
    <path d="M82 172 l6 6" class="bg1"/>
    <path d="M92 178 l6 -6" class="bg1"/>
    <path d="M102 172 l6 6" class="bg1"/>
    <path d="M112 178 l6 -6" class="bg1"/>
    <path d="M122 178 l6 -6" class="fg"/>
    <path d="M132 172 l6 6" class="fg"/>
    <path d="M142 178 l6 -6" class="fg"/>
    <path d="M152 172 l6 6" class="fg"/>
    <path d="M162 172 l6 6" class="bg2"/>
    <path d="M172 178 l6 -6" class="bg2"/>
    <path d="M182 172 l6 6" class="bg2"/>
    <path d="M192 178 l6 -6" class="bg2"/>
    <path d="M202 172 l6 6" class="bg2"/>
    <path d="M212 178 l6 -6" class="bg2"/>
    <path d="M222 178 l6 -6" class="fg"/>
    <path d="M232 172 l6 6" class="fg"/>
    <path d="M242 178 l6 -6" class="fg"/>
    <path d="M252 172 l6 6" class="fg"/>
    <path d="M262 172 l6 6" class="bg1"/>
    <path d="M272 178 l6 -6" class="bg1"/>
    <path d="M282 172 l6 6" class="bg1"/>
    <path d="M292 178 l6 -6" class="bg1"/>
    <path d="M302 172 l6 6" class="bg1"/>
    <path d="M312 178 l6 -6" class="bg1"/>
    <path d="M322 172 l6 6" class="bg1"/>
    <path d="M332 178 l6 -6" class="bg1"/>
    <path d="M342 178 l6 -6" class="fg"/>
    <path d="M352 172 l6 6" class="fg"/>
    <path d="M362 172 l6 6" class="bg2"/>
    <path d="M372 172 l6 6" class="fg"/>
    <!-- 19 -->
    <path d="M2 182 l6 6" class="fg"/>
    <path d="M12 182 l6 6" class="bg2"/>
    <path d="M22 182 l6 6" class="fg"/>
    <path d="M32 188 l6 -6" class="fg"/>
    <path d="M42 188 l6 -6" class="bg1"/>
    <path d="M52 182 l6 6" class="bg1"/>
    <path d="M62 188 l6 -6" class="bg1"/>
    <path d="M72 182 l6 6" class="bg1"/>
    <path d="M82 188 l6 -6" class="bg1"/>
    <path d="M92 182 l6 6" class="bg1"/>
    <path d="M102 188 l6 -6" class="bg1"/>
    <path d="M112 188 l6 -6" class="fg"/>
    <path d="M122 182 l6 6" class="fg"/>
    <path d="M132 188 l6 -6" class="fg"/>
    <path d="M142 182 l6 6" class="fg"/>
    <path d="M152 188 l6 -6" class="fg"/>
    <path d="M162 182 l6 6" class="fg"/>
    <path d="M172 182 l6 6" class="bg2"/>
    <path d="M182 188 l6 -6" class="bg2"/>
    <path d="M192 182 l6 6" class="bg2"/>
    <path d="M202 188 l6 -6" class="bg2"/>
    <path d="M212 188 l6 -6" class="fg"/>
    <path d="M222 182 l6 6" class="fg"/>
    <path d="M232 188 l6 -6" class="fg"/>
    <path d="M242 182 l6 6" class="fg"/>
    <path d="M252 188 l6 -6" class="fg"/>
    <path d="M262 182 l6 6" class="fg"/>
    <path d="M272 182 l6 6" class="bg1"/>
    <path d="M282 188 l6 -6" class="bg1"/>
    <path d="M292 182 l6 6" class="bg1"/>
    <path d="M302 188 l6 -6" class="bg1"/>
    <path d="M312 182 l6 6" class="bg1"/>
    <path d="M322 188 l6 -6" class="bg1"/>
    <path d="M332 182 l6 6" class="bg1"/>
    <path d="M342 182 l6 6" class="fg"/>
    <path d="M352 188 l6 -6" class="fg"/>
    <path d="M362 188 l6 -6" class="bg2"/>
    <path d="M372 188 l6 -6" class="fg"/>
    <!-- 20 -->
    <path d="M2 192 l6 6" class="bg2"/>
    <path d="M12 192 l6 6" class="fg"/>
    <path d="M22 192 l6 6" class="bg2"/>
    <path d="M32 198 l6 -6" class="bg2"/>
    <path d="M42 192 l6 6" class="bg1"/>
    <path d="M52 198 l6 -6" class="bg1"/>
    <path d="M62 192 l6 6" class="bg1"/>
    <path d="M72 198 l6 -6" class="bg1"/>
    <path d="M82 192 l6 6" class="bg1"/>
    <path d="M92 198 l6 -6" class="bg1"/>
    <path d="M102 198 l6 -6" class="fg"/>
    <path d="M112 192 l6 6" class="fg"/>
    <path d="M122 198 l6 -6" class="fg"/>
    <path d="M132 192 l6 6" class="fg"/>
    <path d="M142 198 l6 -6" class="fg"/>
    <path d="M152 192 l6 6" class="fg"/>
    <path d="M162 198 l6 -6" class="fg"/>
    <path d="M172 192 l6 6" class="fg"/>
    <path d="M182 192 l6 6" class="bg2"/>
    <path d="M192 198 l6 -6" class="bg2"/>
    <path d="M202 198 l6 -6" class="fg"/>
    <path d="M212 192 l6 6" class="fg"/>
    <path d="M222 198 l6 -6" class="fg"/>
    <path d="M232 192 l6 6" class="fg"/>
    <path d="M242 198 l6 -6" class="fg"/>
    <path d="M252 192 l6 6" class="fg"/>
    <path d="M262 198 l6 -6" class="fg"/>
    <path d="M272 192 l6 6" class="fg"/>
    <path d="M282 192 l6 6" class="bg1"/>
    <path d="M292 198 l6 -6" class="bg1"/>
    <path d="M302 192 l6 6" class="bg1"/>
    <path d="M312 198 l6 -6" class="bg1"/>
    <path d="M322 192 l6 6" class="bg1"/>
    <path d="M332 198 l6 -6" class="bg1"/>
    <path d="M342 192 l6 6" class="bg2"/>
    <path d="M352 198 l6 -6" class="bg2"/>
    <path d="M362 198 l6 -6" class="fg"/>
    <path d="M372 198 l6 -6" class="bg2"/>
    <!-- 21 -->
    <path d="M2 208 l6 -6" class="bg2"/>
    <path d="M12 202 l6 6" class="bg2"/>
    <path d="M22 202 l6 6" class="fg"/>
    <path d="M32 202 l6 6" class="bg2"/>
    <path d="M42 208 l6 -6" class="bg1"/>
    <path d="M52 202 l6 6" class="bg1"/>
    <path d="M62 208 l6 -6" class="bg1"/>
    <path d="M72 202 l6 6" class="bg1"/>
    <path d="M82 208 l6 -6" class="bg1"/>
    <path d="M92 202 l6 6" class="bg1"/>
    <path d="M102 208 l6 -6" class="bg1"/>
    <path d="M112 202 l6 6" class="bg1"/>
    <path d="M122 208 l6 -6" class="bg2"/>
    <path d="M132 202 l6 6" class="bg2"/>
    <path d="M142 208 l6 -6" class="bg2"/>
    <path d="M152 202 l6 6" class="bg2"/>
    <path d="M162 208 l6 -6" class="bg2"/>
    <path d="M172 208 l6 -6" class="fg"/>
    <path d="M182 202 l6 6" class="fg"/>
    <path d="M192 208 l6 -6" class="fg"/>
    <path d="M202 202 l6 6" class="fg"/>
    <path d="M212 202 l6 6" class="bg2"/>
    <path d="M222 208 l6 -6" class="bg2"/>
    <path d="M232 202 l6 6" class="bg2"/>
    <path d="M242 208 l6 -6" class="bg2"/>
    <path d="M252 202 l6 6" class="bg2"/>
    <path d="M262 208 l6 -6" class="bg1"/>
    <path d="M272 202 l6 6" class="bg1"/>
    <path d="M282 208 l6 -6" class="bg1"/>
    <path d="M292 202 l6 6" class="bg1"/>
    <path d="M302 208 l6 -6" class="bg1"/>
    <path d="M312 202 l6 6" class="bg1"/>
    <path d="M322 208 l6 -6" class="bg1"/>
    <path d="M332 202 l6 6" class="bg1"/>
    <path d="M342 208 l6 -6" class="bg2"/>
    <path d="M352 208 l6 -6" class="fg"/>
    <path d="M362 208 l6 -6" class="bg2"/>
    <path d="M372 202 l6 6" class="bg2"/>
    <!-- 22 -->
    <path d="M2 218 l6 -6" class="fg"/>
    <path d="M12 212 l6 6" class="fg"/>
    <path d="M22 212 l6 6" class="bg2"/>
    <path d="M32 212 l6 6" class="fg"/>
    <path d="M42 212 l6 6" class="bg1"/>
    <path d="M52 218 l6 -6" class="bg1"/>
    <path d="M62 212 l6 6" class="bg1"/>
    <path d="M72 218 l6 -6" class="bg1"/>
    <path d="M82 212 l6 6" class="bg1"/>
    <path d="M92 218 l6 -6" class="bg1"/>
    <path d="M102 212 l6 6" class="bg1"/>
    <path d="M112 218 l6 -6" class="bg1"/>
    <path d="M122 212 l6 6" class="bg2"/>
    <path d="M132 218 l6 -6" class="bg2"/>
    <path d="M142 212 l6 6" class="bg2"/>
    <path d="M152 218 l6 -6" class="bg2"/>
    <path d="M162 218 l6 -6" class="fg"/>
    <path d="M172 212 l6 6" class="fg"/>
    <path d="M182 218 l6 -6" class="fg"/>
    <path d="M192 212 l6 6" class="fg"/>
    <path d="M202 218 l6 -6" class="fg"/>
    <path d="M212 212 l6 6" class="fg"/>
    <path d="M222 212 l6 6" class="bg2"/>
    <path d="M232 218 l6 -6" class="bg2"/>
    <path d="M242 212 l6 6" class="bg2"/>
    <path d="M252 218 l6 -6" class="bg2"/>
    <path d="M262 212 l6 6" class="bg1"/>
    <path d="M272 218 l6 -6" class="bg1"/>
    <path d="M282 212 l6 6" class="bg1"/>
    <path d="M292 218 l6 -6" class="bg1"/>
    <path d="M302 212 l6 6" class="bg1"/>
    <path d="M312 218 l6 -6" class="bg1"/>
    <path d="M322 212 l6 6" class="bg1"/>
    <path d="M332 218 l6 -6" class="bg1"/>
    <path d="M342 218 l6 -6" class="fg"/>
    <path d="M352 218 l6 -6" class="bg2"/>
    <path d="M362 218 l6 -6" class="fg"/>
    <path d="M372 212 l6 6" class="fg"/>
    <!-- 23 -->
    <path d="M2 222 l6 6" class="fg"/>
    <path d="M12 228 l6 -6" class="fg"/>
    <path d="M22 228 l6 -6" class="bg2"/>
    <path d="M32 228 l6 -6" class="fg"/>
    <path d="M42 228 l6 -6" class="bg1"/>
    <path d="M52 222 l6 6" class="bg1"/>
    <path d="M62 228 l6 -6" class="bg1"/>
    <path d="M72 222 l6 6" class="bg1"/>
    <path d="M82 228 l6 -6" class="bg1"/>
    <path d="M92 222 l6 6" class="bg1"/>
    <path d="M102 228 l6 -6" class="bg1"/>
    <path d="M112 222 l6 6" class="bg1"/>
    <path d="M122 228 l6 -6" class="bg2"/>
    <path d="M132 222 l6 6" class="bg2"/>
    <path d="M142 228 l6 -6" class="bg2"/>
    <path d="M152 228 l6 -6" class="fg"/>
    <path d="M162 222 l6 6" class="fg"/>
    <path d="M172 228 l6 -6" class="fg"/>
    <path d="M182 222 l6 6" class="fg"/>
    <path d="M192 228 l6 -6" class="fg"/>
    <path d="M202 222 l6 6" class="fg"/>
    <path d="M212 228 l6 -6" class="fg"/>
    <path d="M222 222 l6 6" class="fg"/>
    <path d="M232 222 l6 6" class="bg2"/>
    <path d="M242 228 l6 -6" class="bg2"/>
    <path d="M252 222 l6 6" class="bg2"/>
    <path d="M262 228 l6 -6" class="bg1"/>
    <path d="M272 222 l6 6" class="bg1"/>
    <path d="M282 228 l6 -6" class="bg1"/>
    <path d="M292 222 l6 6" class="bg1"/>
    <path d="M302 228 l6 -6" class="bg1"/>
    <path d="M312 222 l6 6" class="bg1"/>
    <path d="M322 228 l6 -6" class="bg1"/>
    <path d="M332 222 l6 6" class="bg1"/>
    <path d="M342 222 l6 6" class="fg"/>
    <path d="M352 222 l6 6" class="bg2"/>
    <path d="M362 222 l6 6" class="fg"/>
    <path d="M372 228 l6 -6" class="fg"/>
    <!-- 24 -->
    <path d="M2 232 l6 6" class="bg2"/>
    <path d="M12 238 l6 -6" class="bg2"/>
    <path d="M22 238 l6 -6" class="fg"/>
    <path d="M32 238 l6 -6" class="bg2"/>
    <path d="M42 232 l6 6" class="bg1"/>
    <path d="M52 238 l6 -6" class="bg1"/>
    <path d="M62 232 l6 6" class="bg1"/>
    <path d="M72 238 l6 -6" class="bg1"/>
    <path d="M82 232 l6 6" class="bg1"/>
    <path d="M92 238 l6 -6" class="bg1"/>
    <path d="M102 232 l6 6" class="bg1"/>
    <path d="M112 238 l6 -6" class="bg1"/>
    <path d="M122 232 l6 6" class="bg2"/>
    <path d="M132 238 l6 -6" class="bg2"/>
    <path d="M142 232 l6 6" class="bg2"/>
    <path d="M152 238 l6 -6" class="bg2"/>
    <path d="M162 232 l6 6" class="bg2"/>
    <path d="M172 238 l6 -6" class="bg2"/>
    <path d="M182 232 l6 6" class="bg2"/>
    <path d="M192 238 l6 -6" class="bg2"/>
    <path d="M202 232 l6 6" class="bg2"/>
    <path d="M212 238 l6 -6" class="bg2"/>
    <path d="M222 232 l6 6" class="bg2"/>
    <path d="M232 238 l6 -6" class="bg2"/>
    <path d="M242 232 l6 6" class="bg2"/>
    <path d="M252 238 l6 -6" class="bg2"/>
    <path d="M262 232 l6 6" class="bg1"/>
    <path d="M272 238 l6 -6" class="bg1"/>
    <path d="M282 232 l6 6" class="bg1"/>
    <path d="M292 238 l6 -6" class="bg1"/>
    <path d="M302 232 l6 6" class="bg1"/>
    <path d="M312 238 l6 -6" class="bg1"/>
    <path d="M322 232 l6 6" class="bg1"/>
    <path d="M332 238 l6 -6" class="bg1"/>
    <path d="M342 232 l6 6" class="bg2"/>
    <path d="M352 232 l6 6" class="fg"/>
    <path d="M362 232 l6 6" class="bg2"/>
    <path d="M372 238 l6 -6" class="bg2"/>
  </g>
</svg>
